<?xml version="1.0" encoding="UTF-8" standalone="no"?>
<!DOCTYPE svg PUBLIC "-//W3C//DTD SVG 1.1//EN"
 "http://www.w3.org/Graphics/SVG/1.1/DTD/svg11.dtd">
<!-- Generated by graphviz version 2.40.1 (20161225.0304)
 -->
<!-- Title: snakemake_dag Pages: 1 -->
<svg width="560pt" height="276pt"
 viewBox="0.00 0.00 560.30 276.00" xmlns="http://www.w3.org/2000/svg" xmlns:xlink="http://www.w3.org/1999/xlink">
<g id="graph0" class="graph" transform="scale(1 1) rotate(0) translate(4 272)">
<title>snakemake_dag</title>
<polygon fill="#ffffff" stroke="transparent" points="-4,4 -4,-272 556.3047,-272 556.3047,4 -4,4"/>
<!-- 0 -->
<g id="node1" class="node">
<title>0</title>
<path fill="none" stroke="#afd856" stroke-width="2" stroke-dasharray="5,2" d="M163.8047,-36C163.8047,-36 133.8047,-36 133.8047,-36 127.8047,-36 121.8047,-30 121.8047,-24 121.8047,-24 121.8047,-12 121.8047,-12 121.8047,-6 127.8047,0 133.8047,0 133.8047,0 163.8047,0 163.8047,0 169.8047,0 175.8047,-6 175.8047,-12 175.8047,-12 175.8047,-24 175.8047,-24 175.8047,-30 169.8047,-36 163.8047,-36"/>
<text text-anchor="middle" x="148.8047" y="-15.5" font-family="sans" font-size="10.00" fill="#000000">all</text>
</g>
<!-- 1 -->
<g id="node2" class="node">
<title>1</title>
<path fill="none" stroke="#d8ac56" stroke-width="2" stroke-dasharray="5,2" d="M165.3047,-268C165.3047,-268 132.3047,-268 132.3047,-268 126.3047,-268 120.3047,-262 120.3047,-256 120.3047,-256 120.3047,-244 120.3047,-244 120.3047,-238 126.3047,-232 132.3047,-232 132.3047,-232 165.3047,-232 165.3047,-232 171.3047,-232 177.3047,-238 177.3047,-244 177.3047,-244 177.3047,-256 177.3047,-256 177.3047,-262 171.3047,-268 165.3047,-268"/>
<text text-anchor="middle" x="148.8047" y="-247.5" font-family="sans" font-size="10.00" fill="#000000">mkfastq</text>
</g>
<!-- 1&#45;&gt;0 -->
<g id="edge1" class="edge">
<title>1&#45;&gt;0</title>
<path fill="none" stroke="#c0c0c0" stroke-width="2" d="M120.2251,-242.8707C83.6651,-233.1055 23.5314,-214.6465 10.8047,-196 -29.8292,-136.4657 59.6063,-70.3771 112.8634,-38.041"/>
<polygon fill="#c0c0c0" stroke="#c0c0c0" stroke-width="2" points="114.9075,-40.8975 121.7109,-32.7757 111.3276,-34.8822 114.9075,-40.8975"/>
</g>
<!-- 4 -->
<g id="node5" class="node">
<title>4</title>
<path fill="none" stroke="#56d8a9" stroke-width="2" stroke-dasharray="5,2" d="M265.3047,-196C265.3047,-196 32.3047,-196 32.3047,-196 26.3047,-196 20.3047,-190 20.3047,-184 20.3047,-184 20.3047,-156 20.3047,-156 20.3047,-150 26.3047,-144 32.3047,-144 32.3047,-144 265.3047,-144 265.3047,-144 271.3047,-144 277.3047,-150 277.3047,-156 277.3047,-156 277.3047,-184 277.3047,-184 277.3047,-190 271.3047,-196 265.3047,-196"/>
<text text-anchor="middle" x="148.8047" y="-184" font-family="sans" font-size="10.00" fill="#000000">cat_fastq</text>
<text text-anchor="middle" x="148.8047" y="-173" font-family="sans" font-size="10.00" fill="#000000">project: SCOP_9</text>
<text text-anchor="middle" x="148.8047" y="-162" font-family="sans" font-size="10.00" fill="#000000">run_name: 190707_A00642_0027_AH7MWNDRXX</text>
<text text-anchor="middle" x="148.8047" y="-151" font-family="sans" font-size="10.00" fill="#000000">sample_name: ZA10</text>
</g>
<!-- 1&#45;&gt;4 -->
<g id="edge6" class="edge">
<title>1&#45;&gt;4</title>
<path fill="none" stroke="#c0c0c0" stroke-width="2" d="M148.8047,-231.8468C148.8047,-224.2921 148.8047,-215.2376 148.8047,-206.4174"/>
<polygon fill="#c0c0c0" stroke="#c0c0c0" stroke-width="2" points="152.3048,-206.2746 148.8047,-196.2746 145.3048,-206.2747 152.3048,-206.2746"/>
</g>
<!-- 5 -->
<g id="node6" class="node">
<title>5</title>
<path fill="none" stroke="#56d8a9" stroke-width="2" stroke-dasharray="5,2" d="M540.3047,-196C540.3047,-196 307.3047,-196 307.3047,-196 301.3047,-196 295.3047,-190 295.3047,-184 295.3047,-184 295.3047,-156 295.3047,-156 295.3047,-150 301.3047,-144 307.3047,-144 307.3047,-144 540.3047,-144 540.3047,-144 546.3047,-144 552.3047,-150 552.3047,-156 552.3047,-156 552.3047,-184 552.3047,-184 552.3047,-190 546.3047,-196 540.3047,-196"/>
<text text-anchor="middle" x="423.8047" y="-184" font-family="sans" font-size="10.00" fill="#000000">cat_fastq</text>
<text text-anchor="middle" x="423.8047" y="-173" font-family="sans" font-size="10.00" fill="#000000">project: SCOP_9</text>
<text text-anchor="middle" x="423.8047" y="-162" font-family="sans" font-size="10.00" fill="#000000">run_name: 190707_A00642_0027_AH7MWNDRXX</text>
<text text-anchor="middle" x="423.8047" y="-151" font-family="sans" font-size="10.00" fill="#000000">sample_name: ZA12</text>
</g>
<!-- 1&#45;&gt;5 -->
<g id="edge7" class="edge">
<title>1&#45;&gt;5</title>
<path fill="none" stroke="#c0c0c0" stroke-width="2" d="M177.4563,-241.665C212.164,-231.5682 272.4843,-214.0205 324.7474,-198.8167"/>
<polygon fill="#c0c0c0" stroke="#c0c0c0" stroke-width="2" points="325.78,-202.1614 334.4043,-196.0074 323.8246,-195.4401 325.78,-202.1614"/>
</g>
<!-- 2 -->
<g id="node3" class="node">
<title>2</title>
<path fill="none" stroke="#56a9d8" stroke-width="2" stroke-dasharray="5,2" d="M163.8047,-108C163.8047,-108 133.8047,-108 133.8047,-108 127.8047,-108 121.8047,-102 121.8047,-96 121.8047,-96 121.8047,-84 121.8047,-84 121.8047,-78 127.8047,-72 133.8047,-72 133.8047,-72 163.8047,-72 163.8047,-72 169.8047,-72 175.8047,-78 175.8047,-84 175.8047,-84 175.8047,-96 175.8047,-96 175.8047,-102 169.8047,-108 163.8047,-108"/>
<text text-anchor="middle" x="148.8047" y="-87.5" font-family="sans" font-size="10.00" fill="#000000">fastqc</text>
</g>
<!-- 2&#45;&gt;0 -->
<g id="edge2" class="edge">
<title>2&#45;&gt;0</title>
<path fill="none" stroke="#c0c0c0" stroke-width="2" d="M148.8047,-71.8314C148.8047,-64.131 148.8047,-54.9743 148.8047,-46.4166"/>
<polygon fill="#c0c0c0" stroke="#c0c0c0" stroke-width="2" points="152.3048,-46.4132 148.8047,-36.4133 145.3048,-46.4133 152.3048,-46.4132"/>
</g>
<!-- 3 -->
<g id="node4" class="node">
<title>3</title>
<path fill="none" stroke="#56a9d8" stroke-width="2" stroke-dasharray="5,2" d="M336.8047,-108C336.8047,-108 306.8047,-108 306.8047,-108 300.8047,-108 294.8047,-102 294.8047,-96 294.8047,-96 294.8047,-84 294.8047,-84 294.8047,-78 300.8047,-72 306.8047,-72 306.8047,-72 336.8047,-72 336.8047,-72 342.8047,-72 348.8047,-78 348.8047,-84 348.8047,-84 348.8047,-96 348.8047,-96 348.8047,-102 342.8047,-108 336.8047,-108"/>
<text text-anchor="middle" x="321.8047" y="-87.5" font-family="sans" font-size="10.00" fill="#000000">fastqc</text>
</g>
<!-- 3&#45;&gt;0 -->
<g id="edge3" class="edge">
<title>3&#45;&gt;0</title>
<path fill="none" stroke="#c0c0c0" stroke-width="2" d="M294.7734,-78.75C265.2791,-66.4749 217.9059,-46.7589 185.1671,-33.1335"/>
<polygon fill="#c0c0c0" stroke="#c0c0c0" stroke-width="2" points="186.5082,-29.9007 175.931,-29.2896 183.8185,-36.3633 186.5082,-29.9007"/>
</g>
<!-- 4&#45;&gt;2 -->
<g id="edge4" class="edge">
<title>4&#45;&gt;2</title>
<path fill="none" stroke="#c0c0c0" stroke-width="2" d="M148.8047,-143.805C148.8047,-135.6026 148.8047,-126.5174 148.8047,-118.1839"/>
<polygon fill="#c0c0c0" stroke="#c0c0c0" stroke-width="2" points="152.3048,-118.1532 148.8047,-108.1532 145.3048,-118.1533 152.3048,-118.1532"/>
</g>
<!-- 5&#45;&gt;3 -->
<g id="edge5" class="edge">
<title>5&#45;&gt;3</title>
<path fill="none" stroke="#c0c0c0" stroke-width="2" d="M390.4061,-143.805C378.3211,-134.3266 364.7333,-123.6695 352.8582,-114.3557"/>
<polygon fill="#c0c0c0" stroke="#c0c0c0" stroke-width="2" points="354.9786,-111.5707 344.9501,-108.1532 350.6586,-117.0787 354.9786,-111.5707"/>
</g>
</g>
</svg>
